<?xml version="1.0" encoding="utf-8"?>
<!-- Generator: Adobe Illustrator 27.7.0, SVG Export Plug-In . SVG Version: 6.00 Build 0)  -->
<svg version="1.1" id="レイヤー_1" xmlns="http://www.w3.org/2000/svg" xmlns:xlink="http://www.w3.org/1999/xlink" x="0px"
	 y="0px" viewBox="0 0 153.7 21.2" style="enable-background:new 0 0 153.7 21.2;" xml:space="preserve">
<style type="text/css">
	.st0{fill-rule:evenodd;clip-rule:evenodd;fill:#ABB8BC;}
</style>
<path id="シェイプ_333_1" class="st0" d="M143.1,21.2c-5.9,0-10.6-4.7-10.6-10.6c0-5.9,4.7-10.6,10.6-10.6
	c5.9,0,10.6,4.7,10.6,10.6c0,0,0,0,0,0C153.7,16.4,149,21.2,143.1,21.2C143.1,21.2,143.1,21.2,143.1,21.2z M143.1,2.3
	c-4.6,0-8.3,3.7-8.3,8.2s3.7,8.3,8.2,8.3c4.6,0,8.3-3.7,8.3-8.2c0,0,0,0,0,0C151.3,6,147.7,2.4,143.1,2.3L143.1,2.3z M112.5,21.2
	H112V0l2.4,1.8v17.1h9.4l1.8,2.4H112.5z M95.8,12.9h-7.7l-3.2,8.2h-2.4L90.8,0h2.4l8.2,21.2H99L95.8,12.9z M92,3L89,10.6h5.9L92,3z
	 M69.6,11.8H57.9v9.4h-2.4V0l2.4,1.8v7.7h11.8V0L72,1.8v19.4h-2.4L69.6,11.8L69.6,11.8z M41.2,13.7c-0.3,0.4-0.6,0.8-1,1.1
	c-0.5,0.6-1.5,0.7-2.1,0.1c-0.1-0.1-0.2-0.2-0.3-0.3c-0.4-0.5-0.7-1-1-1.5c-0.3-0.5-0.5-0.6-0.9,0c-0.4,0.6-0.7,1.3-1,2
	c-0.1,0.2-0.2,0.3-0.3,0.5c-0.2-0.2-0.3-0.4-0.4-0.6c0-0.9,0-1.8,0-2.7c0-0.4,0-0.8,0-1.3c-0.9,0.2-1.8,0.3-2.6,0.4
	c-0.3,0-0.5,0.2-0.4,0.5c0,0,0,0.1,0,0.1c-0.1,2.4-0.1,4.8-0.2,7.1c0,0.2-0.1,0.4-0.2,0.6c-0.5-2.7-0.2-5.4-0.3-8.1
	c-0.7,0.1-1.3,0.2-2,0.3c-0.5,0.1-1,0.1-1.6,0.1c-0.5,0-0.6-0.2-0.6-0.6c0.8-0.1,1.6-0.2,2.4-0.3c0.6-0.1,1.1-0.2,1.7-0.2
	c0.5-0.1,0.4-0.5,0.4-0.9c0-0.3,0-0.6,0.5-0.6c0,0.4,0.1,0.8,0.1,1.3l3.1-0.6c0.3-2,0.5-4,0.8-6l0.1,0c0.1,0.3,0.1,0.6,0.1,0.9
	c-0.1,1.3-0.3,2.6-0.4,3.8c0,0.4-0.1,0.8-0.2,1.2l4.5-0.6c0,0.1,0,0.2,0.1,0.3c-0.2,0.1-0.5,0.3-0.7,0.3c-1.2,0.3-2.4,0.6-3.5,0.8
	c-0.2,0-0.4,0.2-0.4,0.4c0,0,0,0.1,0,0.1c0,0.8,0,1.6,0,2.4c0.3-0.5,0.7-0.9,1-1.3c0.5-0.5,0.9-0.5,1.3,0.1c0.3,0.5,0.6,1,1,1.5
	c0.2,0.5,0.9,0.8,1.4,0.5c0.2-0.1,0.3-0.2,0.4-0.4c0.7-0.5,1.1-1.4,1.1-2.2c0-0.2,0-0.5,0.2-0.7c0.2-0.2,0.5-0.3,0.8-0.4
	c0.1,0.2,0.2,0.5,0.2,0.7c-0.2,0.5-0.4,1-0.6,1.5c0.4,0.3,0.9,0.3,1.3,0c0.5-0.3,1-0.8,1.5-1.2c0.2-0.1,0.3-0.3,0.5-0.5
	c-0.4,1.6-2,2.5-3.6,2.1C41.2,13.8,41.2,13.8,41.2,13.7L41.2,13.7z M23,11.8c-0.1,1.4,0.1,2.9,0.6,4.2c0.3,0.6,0.6,1.2,1,1.7
	c0.1,0.1,0.2,0.3,0.3,0.4l-0.2,0.2c-0.4-0.4-0.8-0.8-1.1-1.2c-0.7-1.1-1.1-2.3-1.1-3.6c0-0.6-0.1-1.2-0.2-1.8
	c-0.5,0.6-0.9,1.2-1.4,1.6c-0.5,0.5-1,1-1.6,1.4c-0.6,0.4-1.5,0.2-1.9-0.4c0,0-0.1-0.1-0.1-0.1c-0.5,0.3-1.1,0.6-1.6,1
	C14.9,15.7,14,16,13,15.9c-0.3-0.1-0.7-0.2-1-0.4c0,0,0-0.1,0.1-0.1l-1.3,0.4c0-0.1,0-0.1-0.1-0.2c0.1-0.1,0.3-0.2,0.4-0.2
	c0.6-0.2,1.1-0.8,1.1-1.4c0.1-0.8,0.7-1.4,1.5-1.6c0.3,0,0.5,0,0.7,0.2c0.1,0.3,0,0.5-0.2,0.7c-0.4,0.5-0.9,1-1.4,1.4
	c-0.1,0.2-0.2,0.3-0.3,0.5c0.2,0.1,0.4,0.2,0.6,0.2c1.5-0.1,2.9-0.6,4.1-1.5c0.1-0.1,0.2-0.3,0.2-0.5c0.2-1,0.9-1.8,1.7-2.2
	c0.2,0,0.3,0,0.5,0.1c0.1,0.1,0.1,0.3,0,0.4c-0.2,0.9-0.8,1.6-1.5,2.1c-0.1,0.1-0.3,0.3-0.3,0.5c0.2,0.1,0.4,0.2,0.6,0.2
	c0.3,0,0.5-0.1,0.8-0.2c1.3-1,2.3-2.2,3.1-3.5c0.2-0.6,0.3-1.3,0.3-2c0.2-1.6,0.8-3,1.6-4.3c0.1-0.2,0.3-0.4,0.5-0.5
	c0.3-0.2,0.6-0.2,0.9-0.2c0.2,0.2,0.2,0.4,0.2,0.7c-0.1,2.1-0.9,4-2.2,5.6C23.1,10.4,22.9,11.1,23,11.8z M12.8,14.2l1.4-1.5
	c-0.7,0-1.4,0.5-1.4,1.3C12.8,14.1,12.8,14.1,12.8,14.2z M19.3,11.5c-0.8,0.3-1.3,1-1.4,1.9C18.6,13.1,19.2,12.3,19.3,11.5
	L19.3,11.5z M23.1,9.6c1.3-1.6,2.1-3.5,2.3-5.5C24.2,4.8,23.3,7.1,23.1,9.6L23.1,9.6z M1.3,7.8C1.1,7.9,0.8,8.1,0.6,8.3l0.1,0.2
	c0.7,0,1.4,0.1,2.1,0.2c0.3,0.1,0.6,0.2,0.9,0.4C3.3,9.1,3,9.2,2.7,9.2c-0.6,0-1.2,0-1.8,0C0.6,9.3,0.2,9,0,8.6
	c-0.2-0.5,0-1.1,0.5-1.3c1.6-0.6,3.1-1.4,4.8-1.9c2.1-0.6,4.2-1.1,6.4-1.5c0.5-0.1,0.9-0.1,1.4,0c0,0.1,0,0.1,0,0.2
	c-0.9,0.2-1.8,0.5-2.8,0.7C7.2,5.6,4.2,6.6,1.3,7.8z M7.3,7.8c0.1-0.2,0.2-0.3,0.4-0.4C7.9,7.5,8,7.7,8,7.9C7.7,9.4,7.4,11,7,12.6
	c0,0.1,0,0.2,0,0.3c0.7-0.2,1.3-0.5,2-0.7c0.6-0.2,1.3-0.3,2-0.4l0.1,0.2c-0.3,0.2-0.6,0.3-0.9,0.5c-0.9,0.4-1.9,0.7-2.8,1.1
	c-0.4,0.1-0.6,0.4-0.5,0.8c0,1.4,0,2.9,0,4.3l-0.3,0.1c-0.2-0.3-0.3-0.6-0.4-0.9c-0.1-0.9,0-1.8-0.1-2.8C6.1,14.5,6,14,6,13.5
	c0.6-0.4,0.3-1.3,0.4-1.9C6.8,10.3,7,9,7.3,7.8L7.3,7.8z"/>
</svg>
