<?xml version="1.0" encoding="UTF-8"?><svg id="_レイヤー_2" xmlns="http://www.w3.org/2000/svg" viewBox="0 0 153.74 21.2"><defs><style>.cls-1{fill:#abb8bc;fill-rule:evenodd;}</style></defs><g id="_レイヤー_1-2"><path id="_シェイプ_333_1" class="cls-1" d="m143.16,21.2c-5.85,0-10.61-4.73-10.61-10.59C132.53,4.76,137.27,0,143.13,0c5.85,0,10.61,4.73,10.61,10.59h0c0,5.86-4.73,10.61-10.58,10.61,0,0,0,0,0,0Zm0-18.84c-4.55,0-8.25,3.68-8.26,8.23s3.68,8.25,8.23,8.26c4.55,0,8.25-3.68,8.26-8.23h0c0-4.56-3.68-8.25-8.23-8.26h0Zm-30.57,18.84h-.59V0l2.35,1.77v17.08h9.41l1.76,2.36h-12.93Zm-16.72-8.24h-7.71l-3.2,8.24h-2.35L90.84,0h2.35l8.23,21.2h-2.35l-3.2-8.24Zm-3.85-9.93l-2.94,7.57h5.88l-2.94-7.57Zm-22.34,8.75h-11.76v9.42h-2.35V0l2.35,1.77v7.65h11.76V0l2.35,1.77v19.43h-2.35v-9.42h0Zm-28.47,1.98c-.32.38-.62.78-.98,1.13-.54.62-1.48.68-2.09.14-.1-.09-.19-.19-.26-.3-.36-.46-.65-.96-.97-1.45-.35-.53-.53-.58-.86-.03-.35.64-.67,1.31-.95,1.99-.1.18-.21.35-.32.51-.17-.16-.31-.37-.39-.59-.05-.89-.02-1.77-.02-2.66v-1.25c-.91.15-1.76.31-2.6.43-.26.02-.46.25-.44.51,0,.03,0,.05.01.08-.07,2.38-.15,4.75-.24,7.13,0,.23-.07.45-.19.64-.49-2.67-.17-5.37-.32-8.11-.68.09-1.35.18-2.01.25-.52.05-1.04.07-1.56.11-.45.04-.61-.19-.62-.65.8-.11,1.58-.21,2.36-.32.56-.08,1.11-.16,1.67-.25.54-.08.39-.53.43-.86.04-.28-.05-.62.45-.62.04.43.07.83.11,1.3l3.06-.55c.27-2.05.52-4.05.78-6.05l.15-.03c.08.28.13.57.14.87-.11,1.28-.26,2.55-.4,3.83-.04.4-.11.79-.17,1.22l4.48-.58c.02.08.04.17.06.26-.22.14-.46.25-.7.34-1.18.3-2.36.6-3.55.85-.24,0-.43.19-.44.43,0,.03,0,.05,0,.08v2.4c.32-.46.66-.9,1.02-1.32.5-.52.86-.47,1.27.13.33.48.62.99.96,1.46.24.52.86.75,1.38.51.17-.08.32-.2.43-.36.69-.54,1.09-1.37,1.1-2.24-.03-.24.03-.48.16-.68.24-.16.52-.28.8-.35.12.22.18.47.18.72-.17.51-.37,1.01-.61,1.49.39.28.91.27,1.29-.02.54-.34,1.04-.76,1.55-1.15.17-.13.34-.28.55-.45-.41,1.57-2.02,2.52-3.59,2.11-.04-.01-.08-.02-.12-.03h0Zm-18.22-1.96c-.08,1.43.14,2.86.64,4.2.27.6.64,1.15.97,1.72.08.15.19.28.29.42l-.23.21c-.4-.36-.77-.75-1.1-1.18-.67-1.09-1.06-2.34-1.13-3.62-.04-.58-.1-1.15-.16-1.83-.48.59-.89,1.15-1.37,1.64-.48.51-1.02.96-1.6,1.35-.64.41-1.49.23-1.9-.4-.03-.04-.05-.08-.07-.12-.55.32-1.11.63-1.65.97-.74.56-1.67.83-2.6.75-.33-.1-.66-.24-.95-.42.02-.05.04-.1.06-.14l-1.26.36c-.02-.07-.04-.14-.06-.21.13-.08.26-.16.4-.23.64-.16,1.08-.75,1.05-1.42.1-.8.71-1.45,1.5-1.61.26-.03.52.05.72.22.06.26,0,.53-.17.74-.42.51-.92.95-1.38,1.44-.13.16-.24.34-.33.52.17.1.36.17.55.2,1.47-.11,2.87-.63,4.06-1.51.13-.14.2-.33.19-.52.22-.96.86-1.78,1.74-2.22.17-.05.35-.03.5.06.06.14.07.3.03.44-.22.87-.77,1.61-1.54,2.06-.14.15-.25.32-.34.5.17.1.37.17.57.21.28,0,.55-.07.79-.21,1.25-.95,2.3-2.16,3.06-3.54.22-.64.32-1.32.3-2,.2-1.56.76-3.05,1.65-4.35.12-.21.29-.39.49-.53.27-.15.57-.23.88-.22.16.2.25.45.24.7-.09,2.06-.87,4.04-2.21,5.62-.43.55-.65,1.24-.62,1.94Zm-10.15,2.4l1.38-1.47c-.74-.03-1.36.55-1.39,1.29,0,.06,0,.12,0,.19Zm6.45-2.69c-.77.33-1.3,1.04-1.4,1.87.79-.3,1.34-1.03,1.4-1.87h0Zm3.8-1.92c1.29-1.58,2.08-3.5,2.27-5.53-1.14.73-2.06,3.03-2.27,5.53h0ZM1.34,7.82c-.25.13-.49.28-.71.45l.06.17c.71.05,1.42.07,2.12.16.3.08.59.2.86.36-.29.12-.59.21-.89.26-.58.03-1.17-.01-1.75-.04-.41.09-.83-.16-.94-.57-.22-.49-.01-1.06.47-1.29,1.58-.64,3.14-1.37,4.76-1.86,2.09-.63,4.23-1.07,6.36-1.55.47-.06.95-.06,1.42-.01.01.06.02.13.04.2-.92.24-1.84.48-2.76.72-3.08.76-6.1,1.76-9.02,2.99Zm6.04-.03c.1-.18.24-.33.41-.44.12.15.2.33.24.53-.29,1.57-.62,3.14-.94,4.71,0,.09,0,.18.02.26.69-.22,1.34-.47,2.02-.65.65-.18,1.31-.3,1.97-.44l.08.21c-.29.17-.59.33-.89.47-.93.37-1.85.75-2.8,1.07-.36.08-.6.43-.54.8.01,1.43,0,2.85,0,4.28l-.33.07c-.17-.29-.3-.61-.37-.95-.06-.92-.03-1.85-.07-2.77-.02-.45-.09-.9-.15-1.47.56-.42.25-1.25.43-1.94.34-1.24.61-2.49.93-3.72h0Z"/></g></svg>